/* XPM */
static char *_2cdfa9d00264cb5e03ff2ce56b1b59f[] = {
/* columns rows colors chars-per-pixel */
"32 32 47 1 ",
"  c #002E1E",
". c #003120",
"X c #003523",
"o c #003624",
"O c #003825",
"+ c #003926",
"@ c #003A26",
"# c #003A27",
"$ c #003B27",
"% c #003B28",
"& c #003C28",
"* c #003D29",
"= c #003E2A",
"- c #003F2A",
"; c #003F2B",
": c #00402B",
"> c #00412C",
", c #00422C",
"< c #00422D",
"1 c #00432D",
"2 c #00432E",
"3 c #00442E",
"4 c #00452F",
"5 c #00462F",
"6 c #004730",
"7 c #004731",
"8 c #004831",
"9 c #004931",
"0 c #004932",
"q c #004A32",
"w c #004A33",
"e c #004B33",
"r c #004C34",
"t c #004D35",
"y c #004E35",
"u c #004E36",
"i c #004F36",
"p c #004F37",
"a c #005037",
"s c #005137",
"d c #005138",
"f c #005238",
"g c #005239",
"h c #005339",
"j c #00543A",
"k c #00553A",
"l c None",
/* pixels */
"llllllllllllllllllllllllllllllll",
"llllllllllllllll#%%%%#%===:==:%l",
"ll0jhhhhhhhhhhhhhhhhhhhhjhhhhh6l",
"ll:hshshhshhhshsthshhssssssssh#l",
"llljhtXll lllXsshh0lllllll=shhll",
"lllhh6llllllllthph6llllllllhsell",
"lllth=lllllllltshh2llllllllhh1ll",
"llleh.llllllllthph6llllllllthlll",
"lll5sllllllllltsph5llllllll0hlll",
"lll=tlllllllllehhh1llllllll0tlll",
"llllllllllllllehph1lllllllllllll",
"llllllllllllllesph5lllllllllllll",
"llllllllllllllehhh1lllllllllllll",
"llllllllllllll0sph1lllllllllllll",
"llllllllllllll0hph1lllllllllllll",
"llllllllllllll0hhh6lllllllllllll",
"lllllll$jhhhhhthphphhhhhh;llllll",
"lllllll0tttttehhhptttt0e6lllllll",
"llllllllllllll6hph1lllllllllllll",
"lllllllll###%#0hhhe=====1lllllll",
"lllllllljjjjhjhsphhhjjjjhlllllll",
"llllllll#####l0hhp6llXllllllllll",
"llllllllllllll=hph=lllllllllllll",
"llllllllllllll1hhh=lllllllllllll",
"llllllllllllll1hsh=lllllllllllll",
"llllllllllllll1hhj=lllllllllllll",
"llllllllllllll1hsh1lllllllllllll",
"llllllllllllll1hhh;lllllllllllll",
"llllllllllllll6hth6lllllllllllll",
"lllllllllll=thhhhhhht=llllllllll",
"llllllllllllllllllllllllllllllll",
"llllllllllllllllllllllllllllllll"
};
