/* XPM */
static char *f34cbfab3d1e4e22e3771f0ca1270ce8[] = {
/* columns rows colors chars-per-pixel */
"16 16 33 1 ",
"  c #003624",
". c #003725",
"X c #003825",
"o c #003826",
"O c #003926",
"+ c #003A26",
"@ c #003B28",
"# c #003E2A",
"$ c #00402B",
"% c #00422C",
"& c #00422D",
"* c #00432D",
"= c #00442E",
"- c #00452F",
"; c #004730",
": c #004731",
"> c #004831",
", c #004932",
"< c #004A32",
"1 c #004A33",
"2 c #004B33",
"3 c #004B34",
"4 c #004C34",
"5 c #004D35",
"6 c #004E35",
"7 c #004E36",
"8 c #004F36",
"9 c #005037",
"0 c #005138",
"q c #005238",
"w c #005339",
"e c #00543A",
"r c None",
/* pixels */
"rrrrrrrrrrrrrrrr",
"r%777q977779999O",
"r#q rrr7w%rrr=qr",
"rr7rrrr>wOrrrr7r",
"rr=rrrr>wOrrrr=r",
"rrrrrrr>wOrrrrrr",
"rrrrrrr:e@rrrrrr",
"rrrrrrr>wOrrrrrr",
"rrrr>7>9q7>>%rrr",
"rrrrrrr>w=rrrrrr",
"rrrr:>:7q7:>@rrr",
"rrrrrrr:w rrrrrr",
"rrrrrrr%wrrrrrrr",
"rrrrrrr%wrrrrrrr",
"rrrrrrr7e>rrrrrr",
"rrrrrrrrrrrrrrrr"
};
