/* XPM */
static char *_b118ccf9c0f4ff5d755744ba2660a78[] = {
/* columns rows colors chars-per-pixel */
"128 128 77 1 ",
"  c #001D12",
". c #002114",
"X c #002417",
"o c #002518",
"O c #002618",
"+ c #002719",
"@ c #00281A",
"# c #00291A",
"$ c #002A1B",
"% c #002B1C",
"& c #002C1C",
"* c #002C1D",
"= c #002D1D",
"- c #002E1E",
"; c #002F1F",
": c #00301F",
"> c #003020",
", c #003120",
"< c #003221",
"1 c #003321",
"2 c #003322",
"3 c #003422",
"4 c #003423",
"5 c #003523",
"6 c #003623",
"7 c #003624",
"8 c #003724",
"9 c #003725",
"0 c #003825",
"q c #003826",
"w c #003926",
"e c #003A26",
"r c #003A27",
"t c #003B27",
"y c #003B28",
"u c #003C28",
"i c #003C29",
"p c #003D29",
"a c #003E29",
"s c #003E2A",
"d c #003F2A",
"f c #003F2B",
"g c #00402B",
"h c #00402C",
"j c #00412C",
"k c #00422C",
"l c #00422D",
"z c #00432D",
"x c #00432E",
"c c #00442E",
"v c #00452E",
"b c #00452F",
"n c #00462F",
"m c #004630",
"M c #004730",
"N c #004731",
"B c #004831",
"V c #004931",
"C c #004932",
"Z c #004A32",
"A c #004A33",
"S c #004B33",
"D c #004B34",
"F c #004C34",
"G c #004D34",
"H c #004D35",
"J c #004E35",
"K c #004E36",
"L c #004F36",
"P c #004F37",
"I c #005037",
"U c #005137",
"Y c #005138",
"T c #005238",
"R c #005239",
"E c #005339",
"W c None",
/* pixels */
"WWWWWWWWWWWWWWWWWWWWWWWWWWWWWWWWWWWWWWWWWWWWWWWWWWWWWWWWWWWWWWWWWWWWWWWWWWWWWWWWWWWWWWWWWWWWWWWWWWWWWWWWWWWWWWWWWWWWWWWWWWWWWWWW",
"WWWWWWWWWWWWWWWWWWWWWWWWWWWWWWWWWWWWWWWWWWWWWWWWWWWWWWWWWWWWWWWWWWWWWWWWWWWWWWWWWWWWWWWWWWWWWWWWWWWWWWWWWWWWWWWWWWWWWWWWWWWWWWWW",
"WWWWWWWWWWWWWWWWWWWWWWWWWWWWWWWWWWWWWWWWWWWWWWWWWWWWWWWWWWWWWWWWWWWWWWWWWWWWWWWWWWWWWWWWWWWWWWWWWWWWWWWWWWWWWWWWWWWWWWWWWWWWWWWW",
"WWWWWWWWWWWWWWWWWWWWWWWWWWWWWWWWWWWWWWWWWWWWWWWWWWWWWWWWWWWWWWWWWWWWWWWWWWWWWWWWWWWWWWWWWWWWWWWWWWWWWWWWWWWWWWWWWWWWWWWWWWWWWWWW",
"WWWWWWWWWWWWWWWWWWWWWWWWWWWWWWWWWWWWWWWWWWWWWWWWWWWWWWWWWWWWWWWWWWWWWWWWWWWWWWWWWWWWWWWWWWWWWWWWWWWWWWWWWWWWWWWWWWWWWWWWWWWWWWWW",
"WWWWWWWW7WWW7qrqqrqqrfriprpfffffffhhxhxxNhNhccNhccNcNcCcNNNNNNNNCDDNCCCCFCDDDDCFFFFFFFFPFPPPFPPPTPTPTPPTPPTPTPTPPTPPPTPPTTPWWWWW",
"WWWWWWWpTTTPTTPRTTPPTTPPTTPRTTTTPTTTTTRTTTTTTTTTTTTTTTIITTTTTTTTTTTTTTTTTTTTTTTTTTTTTTRTTTPPTTTTTPTPTPTTPRTTTPRTTTTTTTTTTTNWWWWW",
"WWWWWWWWTPTTTPTRPTTTPTTTTPTTPPTTTTPTTTPTTTPTTTTPTTTTTTTTTRPTTTRPTPTTTTTPTTPTTTTTPTTTTTPTTTTTTTPTTTTPTTTPTRPPTTPTTPPTTPPRPTfWWWWW",
"WWWWWWWWITTTRTPPTRRPRPPTTPRTPPRTRTPPRTPRPTTRTTTPTTPTTPRRTTPRPRTTRPPTPTTRTTPTTTPRRTPPRTPRRPPTPTTTPPRTRTPPRRTPTPRRPTTRTRRPTP2WWWWW",
"WWWWWWWWFTTPPTRTPPTTTTRRTTPTRTRPPTRTRPTRRRPPPPTTPTPTRPTPPRPTTRPRTTRRRRPPTPTTPTPTPTRTRPTRTTRRTTPPRTRPPTRTTPTRRPTPRRPPPPTTTFWWWWWW",
"WWWWWWWWNTTPPRTRRTPRPRTPPPRRTRTPPRTRTTPPTPRTTTPTTPTTRTPTRPRTTPRPPRTPTPRTTTPPRPRTPRTTTTPPPRTPTPTTTRTPPRTTPTPRRTPTTPRTRTPRTNWWWWWW",
"WWWWWWWWfTTTTRPPRPTRPTRPTTTPPPTRTRPPPRRTTRPTTPTTTTTPPTTTTTRPRPTTPTRPTRPTPTTTTTRPTTPPPRRTPTTPTTPTPPTRTTPPRRPTPTRRTRPTRPTTTrWWWWWW",
"WWWWWWWWqTPTTPRTTTPRPRTTPTTTRRTPPTTTTTTPPPRTTTTPPTTTPTTPPRTPRTPRRRTPTPRRTTTPPPRTPTTTTPPTRRTPTTTTRTTPTTTTTPRTPRTPPPRTTPTPF-WWWWWW",
"WWWWWWWWWTTTTTPTPRPTTRPRTTPTTPTRTTPTPPTTRTRPTITTPTTTPTTPPTRPRPTRTPTRRPTPPPTTRTRPTPPTTTTTTPTRIITTRPTPTPPTTRPTPTRPRTRPTPTTFWWWWWWW",
"WWWWWWWWWPTPPPRRRPRTTPTPTPTTPTPRTTTPRTTTTPTTEEEIRTTTTTTTRRTTTTPPPTPRRTPTTTTTTTTTTTTTTTTTTTTTIETITTTTTTTTTPTRRRTTTRTPTTTThWWWWWWW",
"WWWWWWWWWDTTTTTPTTRPTPTTPPFPPPPPFPPPPPFPPPPPFIFSPFPFPFFTTPPRPRRTRRPTPTRRPPNDDDNDDNDNDNNNDNNNCcCcNNNNNxNxxDTPTPPRPPTRPTTTrWWWWWWW",
"WWWWWWWWWxRRPTTRPPRTTTFppppppprrprtrrrrrrr7rr77r4r7447rFPTTRTRRPTPRTPPRTEF0:-:-2--------%%%%%%%%%o%oo%oW-DPTPTTRRRTPTPTPWWWWWWWW",
"WWWWWWWWWfTPRRPPRTRPPTD2WWWWWWWWWWWWWWWWWWWWWWWWWWWWWWWPRRPPPPTTTRPTRTRPII:WWWWWWWWWWWWWWWWWWWWWWWWWWWWWWNPTRRPPTPTRTPTDWWWWWWWW",
"WWWWWWWWWWTTTPRTTRTPTTN>WWWWWWWWWWWWWWWWWWWWWWWWWWWWWWWTTPRTRTPRPPRRTRTPEF-WWWWWWWWWWWWWWWWWWWWWWWWWWWWWWcPTTPRTPTPRTTTpWWWWWWWW",
"WWWWWWWWWWRPTRPTPPTRTThoWWWWWWWWWWWWWWWWWWWWWWWWWWWWWWWPTRPTRPTRRTTPPPTRIF-WWWWWWWWWWWWWWWWWWWWWWWWWWWWWWhPPTRPTRRPTTTT7WWWWWWWW",
"WWWWWWWWWWPTTPRRRTPRTPrWWWWWWWWWWWWWWWWWWWWWWWWWWWWWWWWPPPRTRTPPPTTRRRTPEF-WWWWWWWWWWWWWWWWWWWWWWWWWWWWWWrFTTPRRTPRTPRFWWWWWWWWW",
"WWWWWWWWWWNTRPTPRPTRTD7WWWWWWWWWWWWWWWWWWWWWWWWWWWWWWWWPRTRPPTRTRRPPTPTREF-WWWWWWWWWWWWWWWWWWWWWWWWWWWWWW2FTRPTPTRPTTTCWWWWWWWWW",
"WWWWWWWWWWhRRTPTTTPPTN>WWWWWWWWWWWWWWWWWWWWWWWWWWWWWWWWPTRTPPRTRTPRTPTPRTF-WWWWWWWWWWWWWWWWWWWWWWWWWWWWWWWFTRTPTPPRRTRfWWWWWWWWW",
"WWWWWWWWWWrTPTRRPRRTTx@WWWWWWWWWWWWWWWWWWWWWWWWWWWWWWWWPPPTRTRPPTRPTRRPTIF%WWWWWWWWWWWWWWWWWWWWWWWWWWWWWWWDPPTTTRTTPPP2WWWWWWWWW",
"WWWWWWWWWWWTTPTPTTTTIp WWWWWWWWWWWWWWWWWWWWWWWWWWWWWWWWFTPRRTPRTPPRTRTPPRD%WWWWWWWWWWWWWWWWWWWWWWWWWWWWWWWNITTTPPTTTTFWWWWWWWWWW",
"WWWWWWWWWWWTTTRPTTTIFrWWWWWWWWWWWWWWWWWWWWWWWWWWWWWWWWWFTTTPTRPTRTRPPTRTTP%WWWWWWWWWWWWWWWWWWWWWWWWWWWWWWWhITTTPTTPPTNWWWWWWWWWW",
"WWWWWWWWWWWDTTTTPTTES2WWWWWWWWWWWWWWWWWWWWWWWWWWWWWWWWWFTTRPPPRRTRTPPRTRTF%WWWWWWWWWWWWWWWWWWWWWWWWWWWWWWWpITTTTTPTTTtWWWWWWWWWW",
"WWWWWWWWWWWNTPPTPTIIc%WWWWWWWWWWWWWWWWWWWWWWWWWWWWWWWWWSRPTTRTTPPPTRTRPPTD%WWWWWWWWWWWWWWWWWWWWWWWWWWWWWWWrPTPPTTTTTI-WWWWWWWWWW",
"WWWWWWWWWWWfRTTTTTTPp.WWWWWWWWWWWWWWWWWWWWWWWWWWWWWWWWWCTPRRTRRPRTPRTPRTTFoWWWWWWWWWWWWWWWWWWWWWWWWWWWWWWW>FPTTRPPTTFWWWWWWWWWWW",
"WWWWWWWWWWWWTTPPTPTPrWWWWWWWWWWWWWWWWWWWWWWWWWWWWWWWWWWSTTTPPPTTRPTRTRPTTF%WWWWWWWWWWWWWWWWWWWWWWWWWWWWWWWWFTRPPTTTRhWWWWWWWWWWW",
"WWWWWWWWWWWWPRTTPTTD2WWWWWWWWWWWWWWWWWWWWWWWWWWWWWWWWWWCTTRPRTPRTTPPPPRRTFWWWWWWWWWWWWWWWWWWWWWWWWWWWWWWWWWNPTRTPTPRrWWWWWWWWWWW",
"WWWWWWWWWWWWPTPTTPTN-WWWWWWWWWWWWWWWWWWWWWWWWWWWWWWWWWWCRPTTRPTRPRRTRTTPTFWWWWWWWWWWWWWWWWWWWWWWWWWWWWWWWWWNPTPTTTTPWWWWWWWWWWWW",
"WWWWWWWWWWWWDTPTTPThoWWWWWWWWWWWWWWWWWWWWWWWWWWWWWWWWWWCITTTRTPPPTTRTRRPTFWWWWWWWWWWWWWWWWWWWWWWWWWWWWWWWWWhITPTTTTDWWWWWWWWWWWW",
"WWWWWWWWWWWWNTPTTPFpWWWWWWWWWWWWWWWWWWWWWWWWWWWWWWWWWWWCTTTPPTRTRRPPPPTTTFWWWWWWWWWWWWWWWWWWWWWWWWWWWWWWWWWpFTTTPTRfWWWWWWWWWWWW",
"WWWWWWWWWWWWrTTTTTF4WWWWWWWWWWWWWWWWWWWWWWWWWWWWWWWWWWWNTTTPPRTRTPRTRTPTTFoWWWWWWWWWWWWWWWWWWWWWWWWWWWWWWWW7FTTPPTP7WWWWWWWWWWWW",
"WWWWWWWWWWWWWTTPTTC2WWWWWWWWWWWWWWWWWWWWWWWWWWWWWWWWWWWNTPTTTRPPTRPTRPTTTDWWWWWWWWWWWWWWWWWWWWWWWWWWWWWWWWWWITTTTTPWWWWWWWWWWWWW",
"WWWWWWWWWWWWWTTPTThoWWWWWWWWWWWWWWWWWWWWWWWWWWWWWWWWWWWcTTPTTPRTPPRTTTPPTDWWWWWWWWWWWWWWWWWWWWWWWWWWWWWWWWWWFTTTTTCWWWWWWWWWWWWW",
"WWWWWWWWWWWWWFTTTTpWWWWWWWWWWWWWWWWWWWWWWWWWWWWWWWWWWWWcTPTTTRPTRTRPPTTTTCWWWWWWWWWWWWWWWWWWWWWWWWWWWWWWWWWWCFPTPRpWWWWWWWWWWWWW",
"WWWWWWWWWWWWWNRTTFrWWWWWWWWWWWWWWWWWWWWWWWWWWWWWWWWWWWWNTTPPPPRRTRTPPTTTTDWWWWWWWWWWWWWWWWWWWWWWWWWWWWWWWWWWNFTTTP2WWWWWWWWWWWWW",
"WWWWWWWWWWWWWhRTTC>WWWWWWWWWWWWWWWWWWWWWWWWWWWWWWWWWWWWcTTTTRTTPPPTRTTPTTCWWWWWWWWWWWWWWWWWWWWWWWWWWWWWWWWWWhTTIRPWWWWWWWWWWWWWW",
"WWWWWWWWWWWWW4xhhp%WWWWWWWWWWWWWWWWWWWWWWWWWWWWWWWWWWWWcTTTRTRRPRTPRTTPRTCWWWWWWWWWWWWWWWWWWWWWWWWWWWWWWWWWWrCCNChWWWWWWWWWWWWWW",
"WWWWWWWWWWWWWWWWWWWWWWWWWWWWWWWWWWWWWWWWWWWWWWWWWWWWWWWhTRPPPPTTRPTRPRPTTDWWWWWWWWWWWWWWWWWWWWWWWWWWWWWWWWWWWWWWWWWWWWWWWWWWWWWW",
"WWWWWWWWWWWWWWWWWWWWWWWWWWWWWWWWWWWWWWWWWWWWWWWWWWWWWWWhTPRTRTPRTTPPRPRTTCWWWWWWWWWWWWWWWWWWWWWWWWWWWWWWWWWWWWWWWWWWWWWWWWWWWWWW",
"WWWWWWWWWWWWWWWWWWWWWWWWWWWWWWWWWWWWWWWWWWWWWWWWWWWWWWWhTRPTRPTRPRRTTTRPTCWWWWWWWWWWWWWWWWWWWWWWWWWWWWWWWWWWWWWWWWWWWWWWWWWWWWWW",
"WWWWWWWWWWWWWWWWWWWWWWWWWWWWWWWWWWWWWWWWWWWWWWWWWWWWWWWfTPRTRTPPTRRPPPRTTCWWWWWWWWWWWWWWWWWWWWWWWWWWWWWWWWWWWWWWWWWWWWWWWWWWWWWW",
"WWWWWWWWWWWWWWWWWWWWWWWWWWWWWWWWWWWWWWWWWWWWWWWWWWWWWWWpTTRPPTRTPPTTRTRPTCWWWWWWWWWWWWWWWWWWWWWWWWWWWWWWWWWWWWWWWWWWWWWWWWWWWWWW",
"WWWWWWWWWWWWWWWWWWWWWWWWWWWWWWWWWWWWWWWWWWWWWWWWWWWWWWWfTRTPPRTRRTPRTRTPTCWWWWWWWWWWWWWWWWWWWWWWWWWWWWWWWWWWWWWWWWWWWWWWWWWWWWWW",
"WWWWWWWWWWWWWWWWWWWWWWWWWWWWWWWWWWWWWWWWWWWWWWWWWWWWWWWrTPTRTRPPRPTRPPTRTCWWWWWWWWWWWWWWWWWWWWWWWWWWWWWWWWWWWWWWWWWWWWWWWWWWWWWW",
"WWWWWWWWWWWWWWWWWWWWWWWWWWWWWWWWWWWWWWWWWWWWWWWWWWWWWWWrTPRRTPRTTTPRPRTTTNWWWWWWWWWWWWWWWWWWWWWWWWWWWWWWWWWWWWWWWWWWWWWWWWWWWWWW",
"WWWWWWWWWWWWWWWWWWWWWWWWWWWWWWWWWWWWWWWWWWWWWWWWWWWWWWWrRPTPTRPTPRPTTRPRRNWWWWWWWWWWWWWWWWWWWWWWWWWWWWWWWWWWWWWWWWWWWWWWWWWWWWWW",
"WWWWWWWWWWWWWWWWWWWWWWWWWWWWWWWWWWWWWWWWWWWWWWWWWWWWWWW7RTPTPPRRRPRTTPRPTNWWWWWWWWWWWWWWWWWWWWWWWWWWWWWWWWWWWWWWWWWWWWWWWWWWWWWW",
"WWWWWWWWWWWWWWWWWWWWWWWWWWWWWWWWWWWWWWWWWWWWWWWWWWWWWWWWPTRRRTTPTTRPRPTTTDWWWWWWWWWWWWWWWWWWWWWWWWWWWWWWWWWWWWWWWWWWWWWWWWWWWWWW",
"WWWWWWWWWWWWWWWWWWWWWWWWWWWWWWWWWWWWWWWWWWWWWWWWWWWWWWWWRTPPPTTRPRTPRTPRTNWWWWWWWWWWWWWWWWWWWWWWWWWWWWWWWWWWWWWWWWWWWWWWWWWWWWWW",
"WWWWWWWWWWWWWWWWWWWWWWWWWWWWWWWWWWWWWWWWWWWWWWWWWWWWWWWWPTRTRRPPPTRPRPTRTCWWWWWWWWWWWWWWWWWWWWWWWWWWWWWWWWWWWWWWWWWWWWWWWWWWWWWW",
"WWWWWWWWWWWWWWWWWWWWWWWWWWWWWWWWWWWWWWWWWWWWWWWWWWWWWWWWPRTRTPRTRRTTTTPPTCWWWWWWWWWWWWWWWWWWWWWWWWWWWWWWWWWWWWWWWWWWWWWWWWWWWWWW",
"WWWWWWWWWWWWWWWWWWWWWWWWWWWWWWWWWWWWWWWWWWWWWWWWWWWWWWWWTRPPTRPTTPPRPRRTTNWWWWWWWWWWWWWWWWWWWWWWWWWWWWWWWWWWWWWWWWWWWWWWWWWWWWWW",
"WWWWWWWWWWWWWWWWWWWWWWWWWWWWWWWWWWWWWWWWWWWWWWWWWWWWWWWWITTTTPRRPTTRTRTPTNWWWWWWWWWWWWWWWWWWWWWWWWWWWWWWWWWWWWWWWWWWWWWWWWWWWWWW",
"WWWWWWWWWWWWWWWWWWWWWWWWWWWWWWWWWWWWWWWWWWWWWWWWWWWWWWWWITPTRPTPRRPPPPTTTNWWWWWWWWWWWWWWWWWWWWWWWWWWWWWWWWWWWWWWWWWWWWWWWWWWWWWW",
"WWWWWWWWWWWWWWWWWWWWWWWWWWWWWWWWWWWWWWWWWWWWWWWWWWWWWWWWTPTTRTPTTPRTRTPTTNWWWWWWWWWWWWWWWWWWWWWWWWWWWWWWWWWWWWWWWWWWWWWWWWWWWWWW",
"WWWWWWWWWWWWWWWWWWWWWWWWWWWWWWWWWWWWWWWWWWWWWWWWWWWWWWWWPTTPPTRRTRPTRPTTTcWWWWWWWWWWWWWWWWWWWWWWWWWWWWWWWWWWWWWWWWWWWWWWWWWWWWWW",
"WWWWWWWWWWWWWWWWWWWWWWWWWWWWWWWWWWWWWWWWWWWWWWWWWWWWWWWWPTTTPTTPPPRTTTPPINWWWWWWWWWWWWWWWWWWWWWWWWWWWWWWWWWWWWWWWWWWWWWWWWWWWWWW",
"WWWWWWWWWWWWWWWWWWWWWWWWWWWWWWWWWWWWWWWWWWWWWWWWWWWWWWWWPTPTPTRPRTRPPTTTTcWWWWWWWWWWWWWWWWWWWWWWWWWWWWWWWWWWWWWWWWWWWWWWWWWWWWWW",
"WWWWWWWWWWWWWWWWWWWWWWWWWWWWWWWchhchhxhNchNhNhNccNhNcNcNFTTTRRTTTRTPPTTTTNppppppffpgphfhhhchhhhhhchNcccWWWWWWWWWWWWWWWWWWWWWWWWW",
"WWWWWWWWWWWWWWWWWWWWWWWWWWWWWWFTTTTTTTTTTTTTTPTTTTTTTTTITTTPTPPRPPTRTTTIIIIIIIIITTTTITTTTTTTTTTTTTTTTTpWWWWWWWWWWWWWWWWWWWWWWWWW",
"WWWWWWWWWWWWWWWWWWWWWWWWWWWWWfRPRPPTPTTTPTTRTTTPPTTRTTTPRPPTPTTRRRTPTPRRTPRTPPRTRTPPRTPRTTPRTTPPTTTPRDWWWWWWWWWWWWWWWWWWWWWWWWWW",
"WWWWWWWWWWWWWWWWWWWWWWWWWWWWWPRTTTRRTTPPRRPPPPTTRRPPPPTTTTRRRRPPTPTRRPTPTRPTRTRPPTRTRPTRPRPTPTTTRPTTP>WWWWWWWWWWWWWWWWWWWWWWWWWW",
"WWWWWWWWWWWWWWWWWWWWWWWWWWWWfTPTPRTPTPTTTPRTRTPTTPRTRTPTPRTPTPRTPTPRRTPTPPRRTRTPPRTTTTPPRPRTPTTTTTPRhWWWWWWWWWWWWWWWWWWWWWWWWWWW",
"WWWWWWWWWWWWWWWWWWWWWWWWWWWWPTTTPTRPTRPTTRPTRPTTTRPTRPTTPTRPTRPTRRPTPTRRRTTPPPTRTTPPPRRTTTRPTTPPPRRDWWWWWWWWWWWWWWWWWWWWWWWWWWWW",
"WWWWWWWWWWWWWWWWWWWWWWWWWWWhTTTPRRTPTTTTPTTPTTTPPTTPTTTTRRTPTPRRTPRTPRTPPTTTRRTPTTTTTTTTPRTTTPTTTTT7WWWWWWWWWWWWWWWWWWWWWWWWWWWW",
"WWWWWWWWWWWWWWWWWWWWWWWWWWWTTTTTTPTRTTPTRTTRTTTTRTTRTETTTPTRRPTPTRPTPTRPTTPTTPTRTTTTTTTTTTTTTTTTTEhWWWWWWWWWWWWWWWWWWWWWWWWWWWWW",
"WWWWWWWWWWWWWWWWWWWWWWWWWWhTTFPPPPPPFITFPPPPFTTFPPPFPFFFPTPRRTPTPPRRRRTTTPPPTPPPTFFPFPFFPFFDDDCCNNWWWWWWWWWWWWWWWWWWWWWWWWWWWWWW",
"WWWWWWWWWWWWWWWWWWWWWWWWWW22->-WWWWWWW-WWWWWWWWWWWWWWWWWDRPTPTRRRTTPTPPRTx2>>>%WWWWWWWWWWWWWWWWWWWWWWWWWWWWWWWWWWWWWWWWWWWWWWWWW",
"WWWWWWWWWWWWWWWWWWWWWWWWWWWWWWWWWWWWWWWWWWWWWWWWWWWWWWWWNTTTPTTPPTTRTRRPTfWWWWWWWWWWWWWWWWWWWWWWWWWWWWWWWWWWWWWWWWWWWWWWWWWWWWWW",
"WWWWWWWWWWWWWWWWWWWWWWWWWWWWWWWWWWWWWWWWWWWWWWWWWWWWWWWWDTPTPTRPRRPPPPTTThWWWWWWWWWWWWWWWWWWWWWWWWWWWWWWWWWWWWWWWWWWWWWWWWWWWWWW",
"WWWWWWWWWWWWWWWWWWWWWWWWWWWWWWWWWWWWWWWWWWWWWWWWWWWWWWWWDTRPTTTTTPRTRTPRThWWWWWWWWWWWWWWWWWWWWWWWWWWWWWWWWWWWWWWWWWWWWWWWWWWWWWW",
"WWWWWWWWWWWWWWWWWWWWWWWWWWWWWWWWWWWWWWWWWWWWWWWWWWWWWWWWNTTTTPPRTRPTRPTRThWWWWWWWWWWWWWWWWWWWWWWWWWWWWWWWWWWWWWWWWWWWWWWWWWWWWWW",
"WWWWWWWWWWWWWWWWWWWWWWWWWWWWWWWWWWWWWWWWWWWWWWWWWWWWWWWWNTTTTRRPPPRTTTPPThWWWWWWWWWWW-WWWWWWW>22222224WWWWWWWWWWWWWWWWWWWWWWWWWW",
"WWWWWWWWWWWWWWWWWWWWWWWWWWWWWWWpDCCDCDCDDDDDDDDDFFFDFFFFPRTPPPTTRTRPPTRTTDPPFTTFPPPPFPPPFTTFPPFPTFPPPNWWWWWWWWWWWWWWWWWWWWWWWWWW",
"WWWWWWWWWWWWWWWWWWWWWWWWWWWWWWWTTTPTTTTTTTPTTTPRTTTTPTTTTPRPRTPRTRTPPTTTTPTTPTTTTTPTTTTTPTTTRTPTTPTTT-WWWWWWWWWWWWWWWWWWWWWWWWWW",
"WWWWWWWWWWWWWWWWWWWWWWWWWWWWWWhTTPTTPPTTPTTTPTTTPTPTTTPTRPTTRPTRPPTRTTPPTTPTTTPTPTTTTTPTTTPTPTRRTTTThWWWWWWWWWWWWWWWWWWWWWWWWWWW",
"WWWWWWWWWWWWWWWWWWWWWWWWWWWWWWTTTTPTPTTTPRRTPPRTTTPPTTTPRRTPRTPPRTPRTTPRTTPPTTTPRTTPRRTPTTPPTTTPTTEFWWWWWWWWWWWWWWWWWWWWWWWWWWWW",
"WWWWWWWWWWWWWWWWWWWWWWWWWWWWWhTTPTPTTTPTPTPTRTRPPTTTRPRPTPTRPTRTRPTRPRPTPTTTTPRPRPRPTPTRPTTTTPTPTTTrWWWWWWWWWWWWWWWWWWWWWWWWWWWW",
"WWWWWWWWWWWWWWWWWWWWWWWWWWWWWFTTRPTTTPTTRTPTTTTPTTTTTPRTPTPRPRTRTTPPRPRTPTTTTPTTTPRTPTPRTTTTTPTTTTCWWWWWWWWWWWWWWWWWWWWWWWWWWWWW",
"WWWWWWWWWWWWWWWWWWWWWWWWWWWWNTPTTTTPTPTTTTRTTTTRTTTETTTTRRPTTRPPPRRTTTRPTTTTTTTTTTTTRTTTTTTETTTTTP2WWWWWWWWWWWWWWWWWWWWWWWWWWWWW",
"WWWWWWWWWWWWWWWWWWWWWWWWWWWWTPFTPPPPFTFTTFTFPPPPFTFFTFFPPPPTTPRTTRRPPPRTTDCDDDDDNCNCNDNNCcNcCccNNpWWWWWWWWWWWWWWWWWWWWWWWWWWWWWW",
"WWWWWWWWWWWWWWWWWWWWWWWWWWWWWWWWWWWWWWWWWWWWWWWWWWWWWWWWhTTTTRPTPPTTRTRPTrWWWWWWWWWWWWWWWWWWWWWWWWWWWWWWWWWWWWWWWWWWWWWWWWWWWWWW",
"WWWWWWWWWWWWWWWWWWWWWWWWWWWWWWWWWWWWWWWWWWWWWWWWWWWWWWWWhTTPPPRRRTPRTRTPTpWWWWWWWWWWWWWWWWWWWWWWWWWWWWWWWWWWWWWWWWWWWWWWWWWWWWWW",
"WWWWWWWWWWWWWWWWWWWWWWWWWWWWWWWWWWWWWWWWWWWWWWWWWWWWWWWWhTTTRTTPRPTRPPTRTpWWWWWWWWWWWWWWWWWWWWWWWWWWWWWWWWWWWWWWWWWWWWWWWWWWWWWW",
"WWWWWWWWWWWWWWWWWWWWWWWWWWWWWWWWWWWWWWWWWWWWWWWWWWWWWWWWfTTRTRRPTTPRPRTTRfWWWWWWWWWWWWWWWWWWWWWWWWWWWWWWWWWWWWWWWWWWWWWWWWWWWWWW",
"WWWWWWWWWWWWWWWWWWWWWWWWWWWWWWWWWWWWWWWWWWWWWWWWWWWWWWWWhRPPPPTTPRPTTRPRRfWWWWWWWWWWWWWWWWWWWWWWWWWWWWWWWWWWWWWWWWWWWWWWWWWWWWWW",
"WWWWWWWWWWWWWWWWWWWWWWWWWWWWWWWWWWWWWWWWWWWWWWWWWWWWWWWWhTRTRTPRRPRTTPRPTfWWWWWWWWWWWWWWWWWWWWWWWWWWWWWWWWWWWWWWWWWWWWWWWWWWWWWW",
"WWWWWWWWWWWWWWWWWWWWWWWWWWWWWWWWWWWWWWWWWWWWWWWWWWWWWWWWfTPTRPTRTTRPRPTTTfWWWWWWWWWWWWWWWWWWWWWWWWWWWWWWWWWWWWWWWWWWWWWWWWWWWWWW",
"WWWWWWWWWWWWWWWWWWWWWWWWWWWWWWWWWWWWWWWWWWWWWWWWWWWWWWWWpTTTRTPPPRTPRTPRTfWWWWWWWWWWWWWWWWWWWWWWWWWWWWWWWWWWWWWWWWWWWWWWWWWWWWWW",
"WWWWWWWWWWWWWWWWWWWWWWWWWWWWWWWWWWWWWWWWWWWWWWWWWWWWWWWWpTPTPTRTPTRPRPTRTfWWWWWWWWWWWWWWWWWWWWWWWWWWWWWWWWWWWWWWWWWWWWWWWWWWWWWW",
"WWWWWWWWWWWWWWWWWWWWWWWWWWWWWWWWWWWWWWWWWWWWWWWWWWWWWWWWfTTTPRTRRRTTTTPPTiWWWWWWWWWWWWWWWWWWWWWWWWWWWWWWWWWWWWWWWWWWWWWWWWWWWWWW",
"WWWWWWWWWWWWWWWWWWWWWWWWWWWWWWWWWWWWWWWWWWWWWWWWWWWWWWWWrTTPTRPPTPPRPRRTRfWWWWWWWWWWWWWWWWWWWWWWWWWWWWWWWWWWWWWWWWWWWWWWWWWWWWWW",
"WWWWWWWWWWWWWWWWWWWWWWWWWWWWWWWWWWWWWWWWWWWWWWWWWWWWWWWWfTTTTPRTRPPTPTTRTfWWWWWWWWWWWWWWWWWWWWWWWWWWWWWWWWWWWWWWWWWWWWWWWWWWWWWW",
"WWWWWWWWWWWWWWWWWWWWWWWWWWWWWWWWWWWWWWWWWWWWWWWWWWWWWWWWrTTPTTPTTTRRRRPPTfWWWWWWWWWWWWWWWWWWWWWWWWWWWWWWWWWWWWWWWWWWWWWWWWWWWWWW",
"WWWWWWWWWWWWWWWWWWWWWWWWWWWWWWWWWWWWWWWWWWWWWWWWWWWWWWWWrTTTPPRRPRTPTPRTRfWWWWWWWWWWWWWWWWWWWWWWWWWWWWWWWWWWWWWWWWWWWWWWWWWWWWWW",
"WWWWWWWWWWWWWWWWWWWWWWWWWWWWWWWWWWWWWWWWWWWWWWWWWWWWWWWWrRPPTTTPPTRPTRPTTfWWWWWWWWWWWWWWWWWWWWWWWWWWWWWWWWWWWWWWWWWWWWWWWWWWWWWW",
"WWWWWWWWWWWWWWWWWWWWWWWWWWWWWWWWWWWWWWWWWWWWWWWWWWWWWWWWqTTTRPPTRRTPTPRRTiWWWWWWWWWWWWWWWWWWWWWWWWWWWWWWWWWWWWWWWWWWWWWWWWWWWWWW",
"WWWWWWWWWWWWWWWWWWWWWWWWWWWWWWWWWWWWWWWWWWWWWWWWWWWWWWWWrTPTTTRRTPTRRPTPRfWWWWWWWWWWWWWWWWWWWWWWWWWWWWWWWWWWWWWWWWWWWWWWWWWWWWWW",
"WWWWWWWWWWWWWWWWWWWWWWWWWWWWWWWWWWWWWWWWWWWWWWWWWWWWWWWWrTPTPRTPPTPRRTPTTfWWWWWWWWWWWWWWWWWWWWWWWWWWWWWWWWWWWWWWWWWWWWWWWWWWWWWW",
"WWWWWWWWWWWWWWWWWWWWWWWWWWWWWWWWWWWWWWWWWWWWWWWWWWWWWWWWqTRRPTRPRRPTPTTTTfWWWWWWWWWWWWWWWWWWWWWWWWWWWWWWWWWWWWWWWWWWWWWWWWWWWWWW",
"WWWWWWWWWWWWWWWWWWWWWWWWWWWWWWWWWWWWWWWWWWWWWWWWWWWWWWWWWTTTPRTTTPRTPPRTRfWWWWWWWWWWWWWWWWWWWWWWWWWWWWWWWWWWWWWWWWWWWWWWWWWWWWWW",
"WWWWWWWWWWWWWWWWWWWWWWWWWWWWWWWWWWWWWWWWWWWWWWWWWWWWWWWWWTTTTRPRTRPTRTRPRfWWWWWWWWWWWWWWWWWWWWWWWWWWWWWWWWWWWWWWWWWWWWWWWWWWWWWW",
"WWWWWWWWWWWWWWWWWWWWWWWWWWWWWWWWWWWWWWWWWWWWWWWWWWWWWWWWWTPTTPRPPPRRTRTPRfWWWWWWWWWWWWWWWWWWWWWWWWWWWWWWWWWWWWWWWWWWWWWWWWWWWWWW",
"WWWWWWWWWWWWWWWWWWWWWWWWWWWWWWWWWWWWWWWWWWWWWWWWWWWWWWWWWTPTRPTTRTTPPPTRRfWWWWWWWWWWWWWWWWWWWWWWWWWWWWWWWWWWWWWWWWWWWWWWWWWWWWWW",
"WWWWWWWWWWWWWWWWWWWWWWWWWWWWWWWWWWWWWWWWWWWWWWWWWWWWWWWW7TTPRTPRPTTRRRTPTfWWWWWWWWWWWWWWWWWWWWWWWWWWWWWWWWWWWWWWWWWWWWWWWWWWWWWW",
"WWWWWWWWWWWWWWWWWWWWWWWWWWWWWWWWWWWWWWWWWWWWWWWWWWWWWWWWWTRPRPTRRRPPTPTRTfWWWWWWWWWWWWWWWWWWWWWWWWWWWWWWWWWWWWWWWWWWWWWWWWWWWWWW",
"WWWWWWWWWWWWWWWWWWWWWWWWWWWWWWWWWWWWWWWWWWWWWWWWWWWWWWWWWTTTTTPPTPRTPTPRTfWWWWWWWWWWWWWWWWWWWWWWWWWWWWWWWWWWWWWWWWWWWWWWWWWWWWWW",
"WWWWWWWWWWWWWWWWWWWWWWWWWWWWWWWWWWWWWWWWWWWWWWWWWWWWWWWWWTPTPRRTTRPTRRPTTfWWWWWWWWWWWWWWWWWWWWWWWWWWWWWWWWWWWWWWWWWWWWWWWWWWWWWW",
"WWWWWWWWWWWWWWWWWWWWWWWWWWWWWWWWWWWWWWWWWWWWWWWWWWWWWWWWWRTRTRRPPPRTTPRRRfWWWWWWWWWWWWWWWWWWWWWWWWWWWWWWWWWWWWWWWWWWWWWWWWWWWWWW",
"WWWWWWWWWWWWWWWWWWWWWWWWWWWWWWWWWWWWWWWWWWWWWWWWWWWWWWWrDPPPPPTTRTRPRPTPTx4WWWWWWWWWWWWWWWWWWWWWWWWWWWWWWWWWWWWWWWWWWWWWWWWWWWWW",
"WWWWWWWWWWWWWWWWWWWWWWWWWWWWWWWWWWWWWWWWWWWWWWWWWWW2hDPTTPRTRTPRTRTPRTPTTPDDNh2WWWWWWWWWWWWWWWWWWWWWWWWWWWWWWWWWWWWWWWWWWWWWWWWW",
"WWWWWWWWWWWWWWWWWWWWWWWWWWWWWWWWWWWWWWWWWWWWWWWWrcDPTTRPTTPTRPTRPPTRPTRRPRTTIFFDcp2WWWWWWWWWWWWWWWWWWWWWWWWWWWWWWWWWWWWWWWWWWWWW",
"WWWWWWWWWWWWWWWWWWWWWWWWWWWWWWWWWWWWWWWWWWWWWgNFFTTTPRTTPPTTTTPPRTTPRTTPPTTTTPTIPPPDcp%WWWWWWWWWWWWWWWWWWWWWWWWWWWWWWWWWWWWWWWWW",
"WWWWWWWWWWWWWWWWWWWWWWWWWWWWWWWWWWWWWWWWWWWWFTTTTTPTTRPRTTTPPTTTRPRPRPRPRRPPTTTTPTTPTFpWWWWWWWWWWWWWWWWWWWWWWWWWWWWWWWWWWWWWWWWW",
"WWWWWWWWWWWWWWWWWWWWWWWWWWWWWWWWWWWWWWWWWWWWFETTTPTTTPRPTTTPTTTTTPRTTPRTTPTTPTPTTTTTTTrWWWWWWWWWWWWWWWWWWWWWWWWWWWWWWWWWWWWWWWWW",
"WWWWWWWWWWWWWWWWWWWWWWWWWWWWWWWWWWWWWWWWWWWWFETTTTTTTTRTTRRRTTTTRRRRRRRRRRRRRTTTRTTTTTrWWWWWWWWWWWWWWWWWWWWWWWWWWWWWWWWWWWWWWWWW",
"WWWWWWWWWWWWWWWWWWWWWWWWWWWWWWWWWWWWWWWWWWWWcFSSDDDDCDCCCCCCCCCCCCNCNCCNNNNNNNNcNcNccc-WWWWWWWWWWWWWWWWWWWWWWWWWWWWWWWWWWWWWWWWW",
"WWWWWWWWWWWWWWWWWWWWWWWWWWWWWWWWWWWWWWWWWWWWWWWWWWWWWWWWWWWWWWWWWWWWWWWWWWWWWWWWWWWWWWWWWWWWWWWWWWWWWWWWWWWWWWWWWWWWWWWWWWWWWWWW",
"WWWWWWWWWWWWWWWWWWWWWWWWWWWWWWWWWWWWWWWWWWWWWWWWWWWWWWWWWWWWWWWWWWWWWWWWWWWWWWWWWWWWWWWWWWWWWWWWWWWWWWWWWWWWWWWWWWWWWWWWWWWWWWWW",
"WWWWWWWWWWWWWWWWWWWWWWWWWWWWWWWWWWWWWWWWWWWWWWWWWWWWWWWWWWWWWWWWWWWWWWWWWWWWWWWWWWWWWWWWWWWWWWWWWWWWWWWWWWWWWWWWWWWWWWWWWWWWWWWW",
"WWWWWWWWWWWWWWWWWWWWWWWWWWWWWWWWWWWWWWWWWWWWWWWWWWWWWWWWWWWWWWWWWWWWWWWWWWWWWWWWWWWWWWWWWWWWWWWWWWWWWWWWWWWWWWWWWWWWWWWWWWWWWWWW",
"WWWWWWWWWWWWWWWWWWWWWWWWWWWWWWWWWWWWWWWWWWWWWWWWWWWWWWWWWWWWWWWWWWWWWWWWWWWWWWWWWWWWWWWWWWWWWWWWWWWWWWWWWWWWWWWWWWWWWWWWWWWWWWWW",
"WWWWWWWWWWWWWWWWWWWWWWWWWWWWWWWWWWWWWWWWWWWWWWWWWWWWWWWWWWWWWWWWWWWWWWWWWWWWWWWWWWWWWWWWWWWWWWWWWWWWWWWWWWWWWWWWWWWWWWWWWWWWWWWW",
"WWWWWWWWWWWWWWWWWWWWWWWWWWWWWWWWWWWWWWWWWWWWWWWWWWWWWWWWWWWWWWWWWWWWWWWWWWWWWWWWWWWWWWWWWWWWWWWWWWWWWWWWWWWWWWWWWWWWWWWWWWWWWWWW"
};
