/* XPM */
static char *aacc05b2c7c4452fc81ace0d460abd44[] = {
/* columns rows colors chars-per-pixel */
"64 64 59 1 ",
"  c #00291A",
". c #002E1E",
"X c #002F1F",
"o c #003120",
"O c #003221",
"+ c #003321",
"@ c #003322",
"# c #003422",
"$ c #003523",
"% c #003624",
"& c #003724",
"* c #003725",
"= c #003825",
"- c #003826",
"; c #003926",
": c #003A27",
"> c #003B27",
", c #003B28",
"< c #003C28",
"1 c #003D29",
"2 c #003E29",
"3 c #003E2A",
"4 c #003F2A",
"5 c #003F2B",
"6 c #00402B",
"7 c #00402C",
"8 c #00412C",
"9 c #00422C",
"0 c #00422D",
"q c #00432D",
"w c #00432E",
"e c #00442E",
"r c #00452F",
"t c #00462F",
"y c #004630",
"u c #004730",
"i c #004731",
"p c #004831",
"a c #004932",
"s c #004A32",
"d c #004A33",
"f c #004B33",
"g c #004B34",
"h c #004C34",
"j c #004D34",
"k c #004D35",
"l c #004E35",
"z c #004E36",
"x c #004F36",
"c c #004F37",
"v c #005037",
"b c #005137",
"n c #005138",
"m c #005238",
"M c #005239",
"N c #005339",
"B c #00543A",
"V c #00553A",
"C c None",
/* pixels */
"CCCCCCCCCCCCCCCCCCCCCCCCCCCCCCCCCCCCCCCCCCCCCCCCCCCCCCCCCCCCCCCC",
"CCCCCCCCCCCCCCCCCCCCCCCCCCCCCCCCCCCCCCCCCCCCCCCCCCCCCCCCCCCCCCCC",
"CCCCCCCCCCCCCCCCCCCCCCCCCCCCCCCCCCCCCCCCCCCCCCCCCCCCCC;;;,;,,CCC",
"CCCCzbzzzbzbbMzbbzMMMbMbMMbMMbMMMbMbMNbNMbMMMbMbMMMMMMMMMMMMN1CC",
"CCCCgMMbbMMbMzMMzMMzMzMMbMbMzMMzMMbMbMbMbMbMMzMbbMMbMbMbzMbMMCCC",
"CCCCtMbMMMzMbMMbMbbMMMbzMbMbbMbMbzMMMbMbMbMzMMbMMbbbbMMzMbMbzCCC",
"CCCC1MMbbMzMMzzMMMMbbMMMzMMMMMbMMzMzMbbMbMbbbMMbbbMbMbbMMbMMtCCC",
"CCCCCMbMMbMbMMbMzMbMbzbMbbbzzMMzMMbMbzzzzzbbzzbzbzzzzbMbzMMN%CCC",
"CCCCCbMbzMMs%%%%%$$$++++++X6bMMzbMMbz;CCCCCCCCCCCCCC%bzMMMMbCCCC",
"CCCCCzbMbMM1CCCCCCCCCCCCCCCCMbMMMzzMMCCCCCCCCCCCCCCCCzMbMbMsCCCC",
"CCCCCsMbMMb%CCCCCCCCCCCCCCCCMbMbMMMMzCCCCCCCCCCCCCCCCzbMzbMwCCCC",
"CCCCCwMMzMz CCCCCCCCCCCCCCCCbMMzbzMbbCCCCCCCCCCCCCCCCsMbMMM+CCCC",
"CCCCC;MbMMsCCCCCCCCCCCCCCCCCbMbMMzbMzCCCCCCCCCCCCCCCCtMMbMMCCCCC",
"CCCCCCMMbMwCCCCCCCCCCCCCCCCCMbMbMMMMbCCCCCCCCCCCCCCCCwMbMbsCCCCC",
"CCCCCCzMMb;CCCCCCCCCCCCCCCCCbMMbbMMzzCCCCCCCCCCCCCCCC%MbbM1CCCCC",
"CCCCCCzbMzXCCCCCCCCCCCCCCCCCMMzMMzbMbCCCCCCCCCCCCCCCCCzMbMCCCCCC",
"CCCCCCuMMhCCCCCCCCCCCCCCCCCCMMzMMzMbbCCCCCCCCCCCCCCCCCbbMzCCCCCC",
"CCCCCC6MbtCCCCCCCCCCCCCCCCCCMbMbMMbMbCCCCCCCCCCCCCCCCCgMMsCCCCCC",
"CCCCCCCMM<CCCCCCCCCCCCCCCCCCbMbMbMMbzCCCCCCCCCCCCCCCCCsNM1CCCCCC",
"CCCCCCCMM+CCCCCCCCCCCCCCCCCCMbMbMzbMzCCCCCCCCCCCCCCCCCtNMCCCCCCC",
"CCCCCCC;;CCCCCCCCCCCCCCCCCCCzMMzMzMMzCCCCCCCCCCCCCCCCC$11CCCCCCC",
"CCCCCCCCCCCCCCCCCCCCCCCCCCCCMbMMbMMbzCCCCCCCCCCCCCCCCCCCCCCCCCCC",
"CCCCCCCCCCCCCCCCCCCCCCCCCCCCzMMbMzzMbCCCCCCCCCCCCCCCCCCCCCCCCCCC",
"CCCCCCCCCCCCCCCCCCCCCCCCCCCCzbbMMMbMzCCCCCCCCCCCCCCCCCCCCCCCCCCC",
"CCCCCCCCCCCCCCCCCCCCCCCCCCCCzbMbbMbMzCCCCCCCCCCCCCCCCCCCCCCCCCCC",
"CCCCCCCCCCCCCCCCCCCCCCCCCCCCzbbMMzMbzCCCCCCCCCCCCCCCCCCCCCCCCCCC",
"CCCCCCCCCCCCCCCCCCCCCCCCCCCCzbMMMzMMzCCCCCCCCCCCCCCCCCCCCCCCCCCC",
"CCCCCCCCCCCCCCCCCCCCCCCCCCCCzMbzbMMbzCCCCCCCCCCCCCCCCCCCCCCCCCCC",
"CCCCCCCCCCCCCCCCCCCCCCCCCCCCzbbMzMbMzCCCCCCCCCCCCCCCCCCCCCCCCCCC",
"CCCCCCCCCCCCCCCCCCCCCCCCCCCChMMbMbMbzCCCCCCCCCCCCCCCCCCCCCCCCCCC",
"CCCCCCCCCCCCCCCCCCCCCCCCCCCCsMbMMbbMzCCCCCCCCCCCCCCCCCCCCCCCCCCC",
"CCCCCCCCCCCCCCC;twtwtwtwtttuzMMbzMMbb66w66w6wwwwtwt$CCCCCCCCCCCC",
"CCCCCCCCCCCCCCCbMMMMMMMMMMMMMMbMMMzMMbMMMMMMMMMMMMbCCCCCCCCCCCCC",
"CCCCCCCCCCCCCCtMbMMzMbMbMbMbbzMMMbMbbMzMMbzMbMMMbM$CCCCCCCCCCCCC",
"CCCCCCCCCCCCCCMMMMMMMMMMMMbMMzMzzbMMMMMMbMMMMMNNMtCCCCCCCCCCCCCC",
"CCCCCCCCCCCCC,stttttwwwtwwwwzMbMMMzMzuuuttwww1611CCCCCCCCCCCCCCC",
"CCCCCCCCCCCCCCCCCCCCCCCCCCCCuMMMMbMbzCCCCCCCCCCCCCCCCCCCCCCCCCCC",
"CCCCCCCCCCCCCCCCCCCCCCCCCCCCtMMzzMbMhCCCCCCCCCCCCCCCCCCCCCCCCCCC",
"CCCCCCCCCCCCCCCCCCCCCCCCCCCCsMMbMMMbz;%;;&;;;,;11<;CCCCCCCCCCCCC",
"CCCCCCCCCCCCCCCCMMbMMbMbMMbMMMzMMbbMbbMbbNbMbMbMbMtCCCCCCCCCCCCC",
"CCCCCCCCCCCCCCCzMbbMzMMbbbMbMbzMzbMzbMzMMbMbMbMbbzCCCCCCCCCCCCCC",
"CCCCCCCCCCCCCC1MMMMMMMMMMMMMbMMbMMMMbMMNMMNMNNMMN1CCCCCCCCCCCCCC",
"CCCCCCCCCCCCCCwtttwtwwwwwwwwgbbMMMbMzw61111111;11CCCCCCCCCCCCCCC",
"CCCCCCCCCCCCCCCCCCCCCCCCCCCCwMMbbzMbsCCCCCCCCCCCCCCCCCCCCCCCCCCC",
"CCCCCCCCCCCCCCCCCCCCCCCCCCCC6MbMMzMbsCCCCCCCCCCCCCCCCCCCCCCCCCCC",
"CCCCCCCCCCCCCCCCCCCCCCCCCCCCwMMMMMbMgCCCCCCCCCCCCCCCCCCCCCCCCCCC",
"CCCCCCCCCCCCCCCCCCCCCCCCCCCC6MMzbMMbsCCCCCCCCCCCCCCCCCCCCCCCCCCC",
"CCCCCCCCCCCCCCCCCCCCCCCCCCCC6MbMMzbMzCCCCCCCCCCCCCCCCCCCCCCCCCCC",
"CCCCCCCCCCCCCCCCCCCCCCCCCCCC6MMbMbMbsCCCCCCCCCCCCCCCCCCCCCCCCCCC",
"CCCCCCCCCCCCCCCCCCCCCCCCCCCCwNbMbMbMzCCCCCCCCCCCCCCCCCCCCCCCCCCC",
"CCCCCCCCCCCCCCCCCCCCCCCCCCCC1NMbMzMbsCCCCCCCCCCCCCCCCCCCCCCCCCCC",
"CCCCCCCCCCCCCCCCCCCCCCCCCCCC1MzMMMbMgCCCCCCCCCCCCCCCCCCCCCCCCCCC",
"CCCCCCCCCCCCCCCCCCCCCCCCCCCC1NzMbMMbsCCCCCCCCCCCCCCCCCCCCCCCCCCC",
"CCCCCCCCCCCCCCCCCCCCCCCCCCCC1NMbMzbMzCCCCCCCCCCCCCCCCCCCCCCCCCCC",
"CCCCCCCCCCCCCCCCCCCCCCCCCCCC1NMMMbMbsCCCCCCCCCCCCCCCCCCCCCCCCCCC",
"CCCCCCCCCCCCCCCCCCCCCCCCCCCC1NMbzMbMzCCCCCCCCCCCCCCCCCCCCCCCCCCC",
"CCCCCCCCCCCCCCCCCCCCCCCCCCCC5MbMMMMbzCCCCCCCCCCCCCCCCCCCCCCCCCCC",
"CCCCCCCCCCCCCCCCCCCCCCCCC$wzMbMbMbbMzst;CCCCCCCCCCCCCCCCCCCCCCCC",
"CCCCCCCCCCCCCCCCCCCCCC;szMMbbMMMzMMbbMMbMstCCCCCCCCCCCCCCCCCCCCC",
"CCCCCCCCCCCCCCCCCCCCCCgNNMNMMMNNMMMMNNMMNMN+CCCCCCCCCCCCCCCCCCCC",
"CCCCCCCCCCCCCCCCCCCCCC;1616611111,,,1,,,,;,CCCCCCCCCCCCCCCCCCCCC",
"CCCCCCCCCCCCCCCCCCCCCCCCCCCCCCCCCCCCCCCCCCCCCCCCCCCCCCCCCCCCCCCC",
"CCCCCCCCCCCCCCCCCCCCCCCCCCCCCCCCCCCCCCCCCCCCCCCCCCCCCCCCCCCCCCCC",
"CCCCCCCCCCCCCCCCCCCCCCCCCCCCCCCCCCCCCCCCCCCCCCCCCCCCCCCCCCCCCCCC"
};
